<?xml version="1.0" encoding="UTF-8"?>
<!DOCTYPE svg PUBLIC "-//W3C//DTD SVG 1.1//EN"
    "http://www.w3.org/Graphics/SVG/1.1/DTD/svg11.dtd"><svg xmlns="http://www.w3.org/2000/svg" height="180.0000" width="1920.0000" xmlns:xlink="http://www.w3.org/1999/xlink" version="1.11.1"><text font-size="30.0000" x="110.0000" text-anchor="start" y="74.0000">&quot;a&quot;</text><rect height="30.0000" width="120.0000" stroke="black" fill="green" x="102.4000" y="50.0000"/><rect height="30.0000" width="120.0000" stroke="black" fill="green" x="130.4000" y="50.0000"/><rect height="30.0000" width="120.0000" stroke="black" fill="green" x="158.4000" y="50.0000"/><rect height="30.0000" width="120.0000" stroke="black" fill="green" x="186.4000" y="50.0000"/><rect height="30.0000" width="120.0000" stroke="black" fill="green" x="214.4000" y="50.0000"/><rect height="30.0000" width="120.0000" stroke="black" fill="green" x="242.4000" y="50.0000"/><rect height="30.0000" width="120.0000" stroke="black" fill="green" x="270.4000" y="50.0000"/><rect height="30.0000" width="120.0000" stroke="black" fill="green" x="298.4000" y="50.0000"/><rect height="30.0000" width="120.0000" stroke="black" fill="green" x="326.4000" y="50.0000"/><rect height="30.0000" width="120.0000" stroke="black" fill="green" x="354.4000" y="50.0000"/><rect height="30.0000" width="120.0000" stroke="black" fill="green" x="382.4000" y="50.0000"/><rect height="30.0000" width="120.0000" stroke="black" fill="green" x="410.4000" y="50.0000"/><rect height="30.0000" width="120.0000" stroke="black" fill="green" x="438.4000" y="50.0000"/><rect height="30.0000" width="120.0000" stroke="black" fill="green" x="466.4000" y="50.0000"/><rect height="30.0000" width="120.0000" stroke="black" fill="green" x="494.4000" y="50.0000"/><rect height="30.0000" width="120.0000" stroke="black" fill="green" x="522.4000" y="50.0000"/><rect height="30.0000" width="120.0000" stroke="black" fill="green" x="550.4000" y="50.0000"/><rect height="30.0000" width="120.0000" stroke="black" fill="green" x="578.4000" y="50.0000"/><rect height="30.0000" width="120.0000" stroke="black" fill="green" x="606.4000" y="50.0000"/><rect height="30.0000" width="120.0000" stroke="black" fill="green" x="634.4000" y="50.0000"/><rect height="30.0000" width="120.0000" stroke="black" fill="green" x="662.4000" y="50.0000"/><rect height="30.0000" width="120.0000" stroke="black" fill="green" x="690.4000" y="50.0000"/><rect height="30.0000" width="120.0000" stroke="black" fill="green" x="718.4000" y="50.0000"/><rect height="30.0000" width="120.0000" stroke="black" fill="green" x="746.4000" y="50.0000"/><rect height="30.0000" width="120.0000" stroke="black" fill="green" x="774.4000" y="50.0000"/><rect height="30.0000" width="120.0000" stroke="black" fill="green" x="802.4000" y="50.0000"/><rect height="30.0000" width="120.0000" stroke="black" fill="green" x="830.4000" y="50.0000"/><rect height="30.0000" width="120.0000" stroke="black" fill="green" x="858.4000" y="50.0000"/><rect height="30.0000" width="120.0000" stroke="black" fill="green" x="886.4000" y="50.0000"/><rect height="30.0000" width="120.0000" stroke="black" fill="green" x="914.4000" y="50.0000"/><rect height="30.0000" width="120.0000" stroke="black" fill="green" x="942.4000" y="50.0000"/><rect height="30.0000" width="120.0000" stroke="black" fill="green" x="970.4000" y="50.0000"/><rect height="30.0000" width="120.0000" stroke="black" fill="green" x="998.4000" y="50.0000"/><rect height="30.0000" width="120.0000" stroke="black" fill="green" x="1026.4000" y="50.0000"/><rect height="30.0000" width="120.0000" stroke="black" fill="green" x="1054.4000" y="50.0000"/><rect height="30.0000" width="120.0000" stroke="black" fill="green" x="1082.4000" y="50.0000"/><rect height="30.0000" width="120.0000" stroke="black" fill="green" x="1110.4000" y="50.0000"/><rect height="30.0000" width="120.0000" stroke="black" fill="green" x="1138.4000" y="50.0000"/><rect height="30.0000" width="120.0000" stroke="black" fill="green" x="1166.4000" y="50.0000"/><rect height="30.0000" width="120.0000" stroke="black" fill="green" x="1194.4000" y="50.0000"/><rect height="30.0000" width="120.0000" stroke="black" fill="green" x="1222.4000" y="50.0000"/><rect height="30.0000" width="120.0000" stroke="black" fill="green" x="1250.4000" y="50.0000"/><rect height="30.0000" width="120.0000" stroke="black" fill="green" x="1278.4000" y="50.0000"/><rect height="30.0000" width="120.0000" stroke="black" fill="green" x="1306.4000" y="50.0000"/><rect height="30.0000" width="120.0000" stroke="black" fill="green" x="1334.4000" y="50.0000"/><rect height="30.0000" width="120.0000" stroke="black" fill="green" x="1362.4000" y="50.0000"/><rect height="30.0000" width="120.0000" stroke="black" fill="green" x="1390.4000" y="50.0000"/><rect height="30.0000" width="120.0000" stroke="black" fill="green" x="1418.4000" y="50.0000"/><rect height="30.0000" width="120.0000" stroke="black" fill="green" x="1446.4000" y="50.0000"/><rect height="30.0000" width="120.0000" stroke="black" fill="green" x="1474.4000" y="50.0000"/><rect height="30.0000" width="120.0000" stroke="black" fill="green" x="1502.4000" y="50.0000"/><rect height="30.0000" width="120.0000" stroke="black" fill="green" x="1530.4000" y="50.0000"/><rect height="30.0000" width="120.0000" stroke="black" fill="green" x="1558.4000" y="50.0000"/><rect height="30.0000" width="120.0000" stroke="black" fill="green" x="1586.4000" y="50.0000"/><rect height="30.0000" width="120.0000" stroke="black" fill="green" x="1614.4000" y="50.0000"/><rect height="30.0000" width="120.0000" stroke="black" fill="green" x="1642.4000" y="50.0000"/><rect height="30.0000" width="120.0000" stroke="black" fill="green" x="1670.4000" y="50.0000"/><rect height="30.0000" width="120.0000" stroke="black" fill="green" x="1698.4000" y="50.0000"/><rect height="30.0000" width="120.0000" stroke="black" fill="green" x="1726.4000" y="50.0000"/><rect height="30.0000" width="120.0000" stroke="black" fill="green" x="1754.4000" y="50.0000"/><rect height="30.0000" width="120.0000" stroke="black" fill="green" x="1782.4000" y="50.0000"/><rect height="30.0000" width="120.0000" stroke="black" fill="green" x="1810.4000" y="50.0000"/><rect height="30.0000" width="120.0000" stroke="black" fill="green" x="1838.4000" y="50.0000"/><rect height="30.0000" width="120.0000" stroke="black" fill="green" x="1866.4000" y="50.0000"/><rect height="30.0000" width="120.0000" stroke="black" fill="green" x="1894.4000" y="50.0000"/><rect height="30.0000" width="120.0000" stroke="black" fill="green" x="1922.4000" y="50.0000"/><text font-size="30.0000" x="110.0000" text-anchor="start" y="108.0000">&quot;b&quot;</text><rect height="30.0000" width="20.0000" stroke="black" fill="green" x="222.4000" y="84.0000"/><rect height="30.0000" width="20.0000" stroke="black" fill="green" x="250.4000" y="84.0000"/><rect height="30.0000" width="20.0000" stroke="black" fill="green" x="278.4000" y="84.0000"/><rect height="30.0000" width="20.0000" stroke="black" fill="green" x="306.4000" y="84.0000"/><rect height="30.0000" width="20.0000" stroke="black" fill="green" x="334.4000" y="84.0000"/><rect height="30.0000" width="20.0000" stroke="black" fill="green" x="362.4000" y="84.0000"/><rect height="30.0000" width="20.0000" stroke="black" fill="green" x="390.4000" y="84.0000"/><rect height="30.0000" width="20.0000" stroke="black" fill="green" x="418.4000" y="84.0000"/><rect height="30.0000" width="20.0000" stroke="black" fill="green" x="446.4000" y="84.0000"/><rect height="30.0000" width="20.0000" stroke="black" fill="green" x="474.4000" y="84.0000"/><rect height="30.0000" width="20.0000" stroke="black" fill="green" x="502.4000" y="84.0000"/><rect height="30.0000" width="20.0000" stroke="black" fill="green" x="530.4000" y="84.0000"/><rect height="30.0000" width="20.0000" stroke="black" fill="green" x="558.4000" y="84.0000"/><rect height="30.0000" width="20.0000" stroke="black" fill="green" x="586.4000" y="84.0000"/><rect height="30.0000" width="20.0000" stroke="black" fill="green" x="614.4000" y="84.0000"/><rect height="30.0000" width="20.0000" stroke="black" fill="green" x="642.4000" y="84.0000"/><rect height="30.0000" width="20.0000" stroke="black" fill="green" x="670.4000" y="84.0000"/><rect height="30.0000" width="20.0000" stroke="black" fill="green" x="698.4000" y="84.0000"/><rect height="30.0000" width="20.0000" stroke="black" fill="green" x="726.4000" y="84.0000"/><rect height="30.0000" width="20.0000" stroke="black" fill="green" x="754.4000" y="84.0000"/><rect height="30.0000" width="20.0000" stroke="black" fill="green" x="782.4000" y="84.0000"/><rect height="30.0000" width="20.0000" stroke="black" fill="green" x="810.4000" y="84.0000"/><rect height="30.0000" width="20.0000" stroke="black" fill="green" x="838.4000" y="84.0000"/><rect height="30.0000" width="20.0000" stroke="black" fill="green" x="866.4000" y="84.0000"/><rect height="30.0000" width="20.0000" stroke="black" fill="green" x="894.4000" y="84.0000"/><rect height="30.0000" width="20.0000" stroke="black" fill="green" x="922.4000" y="84.0000"/><rect height="30.0000" width="20.0000" stroke="black" fill="green" x="950.4000" y="84.0000"/><rect height="30.0000" width="20.0000" stroke="black" fill="green" x="978.4000" y="84.0000"/><rect height="30.0000" width="20.0000" stroke="black" fill="green" x="1006.4000" y="84.0000"/><rect height="30.0000" width="20.0000" stroke="black" fill="green" x="1034.4000" y="84.0000"/><rect height="30.0000" width="20.0000" stroke="black" fill="green" x="1062.4000" y="84.0000"/><rect height="30.0000" width="20.0000" stroke="black" fill="green" x="1090.4000" y="84.0000"/><rect height="30.0000" width="20.0000" stroke="black" fill="green" x="1118.4000" y="84.0000"/><rect height="30.0000" width="20.0000" stroke="black" fill="green" x="1146.4000" y="84.0000"/><rect height="30.0000" width="20.0000" stroke="black" fill="green" x="1174.4000" y="84.0000"/><rect height="30.0000" width="20.0000" stroke="black" fill="green" x="1202.4000" y="84.0000"/><rect height="30.0000" width="20.0000" stroke="black" fill="green" x="1230.4000" y="84.0000"/><rect height="30.0000" width="20.0000" stroke="black" fill="green" x="1258.4000" y="84.0000"/><rect height="30.0000" width="20.0000" stroke="black" fill="green" x="1286.4000" y="84.0000"/><rect height="30.0000" width="20.0000" stroke="black" fill="green" x="1314.4000" y="84.0000"/><rect height="30.0000" width="20.0000" stroke="black" fill="green" x="1342.4000" y="84.0000"/><rect height="30.0000" width="20.0000" stroke="black" fill="green" x="1370.4000" y="84.0000"/><rect height="30.0000" width="20.0000" stroke="black" fill="green" x="1398.4000" y="84.0000"/><rect height="30.0000" width="20.0000" stroke="black" fill="green" x="1426.4000" y="84.0000"/><rect height="30.0000" width="20.0000" stroke="black" fill="green" x="1454.4000" y="84.0000"/><rect height="30.0000" width="20.0000" stroke="black" fill="green" x="1482.4000" y="84.0000"/><rect height="30.0000" width="20.0000" stroke="black" fill="green" x="1510.4000" y="84.0000"/><rect height="30.0000" width="20.0000" stroke="black" fill="green" x="1538.4000" y="84.0000"/><rect height="30.0000" width="20.0000" stroke="black" fill="green" x="1566.4000" y="84.0000"/><rect height="30.0000" width="20.0000" stroke="black" fill="green" x="1594.4000" y="84.0000"/><rect height="30.0000" width="20.0000" stroke="black" fill="green" x="1622.4000" y="84.0000"/><rect height="30.0000" width="20.0000" stroke="black" fill="green" x="1650.4000" y="84.0000"/><rect height="30.0000" width="20.0000" stroke="black" fill="green" x="1678.4000" y="84.0000"/><rect height="30.0000" width="20.0000" stroke="black" fill="green" x="1706.4000" y="84.0000"/><rect height="30.0000" width="20.0000" stroke="black" fill="green" x="1734.4000" y="84.0000"/><rect height="30.0000" width="20.0000" stroke="black" fill="green" x="1762.4000" y="84.0000"/><rect height="30.0000" width="20.0000" stroke="black" fill="green" x="1790.4000" y="84.0000"/><rect height="30.0000" width="20.0000" stroke="black" fill="green" x="1818.4000" y="84.0000"/><rect height="30.0000" width="20.0000" stroke="black" fill="green" x="1846.4000" y="84.0000"/><rect height="30.0000" width="20.0000" stroke="black" fill="green" x="1874.4000" y="84.0000"/><rect height="30.0000" width="20.0000" stroke="black" fill="green" x="1902.4000" y="84.0000"/><rect height="30.0000" width="20.0000" stroke="black" fill="green" x="1930.4000" y="84.0000"/><line x2="200.0000" y1="50.0000" stroke="red" stroke-width="2" y2="230.0000" stroke-dasharray="5.0000" x1="200.0000"/><line x2="228.0000" y1="50.0000" stroke="red" stroke-width="2" y2="230.0000" stroke-dasharray="5.0000" x1="228.0000"/><line x2="256.0000" y1="50.0000" stroke="red" stroke-width="2" y2="230.0000" stroke-dasharray="5.0000" x1="256.0000"/><line x2="284.0000" y1="50.0000" stroke="red" stroke-width="2" y2="230.0000" stroke-dasharray="5.0000" x1="284.0000"/><line x2="312.0000" y1="50.0000" stroke="red" stroke-width="2" y2="230.0000" stroke-dasharray="5.0000" x1="312.0000"/><line x2="340.0000" y1="50.0000" stroke="red" stroke-width="2" y2="230.0000" stroke-dasharray="5.0000" x1="340.0000"/><line x2="368.0000" y1="50.0000" stroke="red" stroke-width="2" y2="230.0000" stroke-dasharray="5.0000" x1="368.0000"/><line x2="396.0000" y1="50.0000" stroke="red" stroke-width="2" y2="230.0000" stroke-dasharray="5.0000" x1="396.0000"/><line x2="424.0000" y1="50.0000" stroke="red" stroke-width="2" y2="230.0000" stroke-dasharray="5.0000" x1="424.0000"/><line x2="452.0000" y1="50.0000" stroke="red" stroke-width="2" y2="230.0000" stroke-dasharray="5.0000" x1="452.0000"/><line x2="480.0000" y1="50.0000" stroke="red" stroke-width="2" y2="230.0000" stroke-dasharray="5.0000" x1="480.0000"/><line x2="508.0000" y1="50.0000" stroke="red" stroke-width="2" y2="230.0000" stroke-dasharray="5.0000" x1="508.0000"/><line x2="536.0000" y1="50.0000" stroke="red" stroke-width="2" y2="230.0000" stroke-dasharray="5.0000" x1="536.0000"/><line x2="564.0000" y1="50.0000" stroke="red" stroke-width="2" y2="230.0000" stroke-dasharray="5.0000" x1="564.0000"/><line x2="592.0000" y1="50.0000" stroke="red" stroke-width="2" y2="230.0000" stroke-dasharray="5.0000" x1="592.0000"/><line x2="620.0000" y1="50.0000" stroke="red" stroke-width="2" y2="230.0000" stroke-dasharray="5.0000" x1="620.0000"/><line x2="648.0000" y1="50.0000" stroke="red" stroke-width="2" y2="230.0000" stroke-dasharray="5.0000" x1="648.0000"/><line x2="676.0000" y1="50.0000" stroke="red" stroke-width="2" y2="230.0000" stroke-dasharray="5.0000" x1="676.0000"/><line x2="704.0000" y1="50.0000" stroke="red" stroke-width="2" y2="230.0000" stroke-dasharray="5.0000" x1="704.0000"/><line x2="732.0000" y1="50.0000" stroke="red" stroke-width="2" y2="230.0000" stroke-dasharray="5.0000" x1="732.0000"/><line x2="760.0000" y1="50.0000" stroke="red" stroke-width="2" y2="230.0000" stroke-dasharray="5.0000" x1="760.0000"/><line x2="788.0000" y1="50.0000" stroke="red" stroke-width="2" y2="230.0000" stroke-dasharray="5.0000" x1="788.0000"/><line x2="816.0000" y1="50.0000" stroke="red" stroke-width="2" y2="230.0000" stroke-dasharray="5.0000" x1="816.0000"/><line x2="844.0000" y1="50.0000" stroke="red" stroke-width="2" y2="230.0000" stroke-dasharray="5.0000" x1="844.0000"/><line x2="872.0000" y1="50.0000" stroke="red" stroke-width="2" y2="230.0000" stroke-dasharray="5.0000" x1="872.0000"/><line x2="900.0000" y1="50.0000" stroke="red" stroke-width="2" y2="230.0000" stroke-dasharray="5.0000" x1="900.0000"/><line x2="928.0000" y1="50.0000" stroke="red" stroke-width="2" y2="230.0000" stroke-dasharray="5.0000" x1="928.0000"/><line x2="956.0000" y1="50.0000" stroke="red" stroke-width="2" y2="230.0000" stroke-dasharray="5.0000" x1="956.0000"/><line x2="984.0000" y1="50.0000" stroke="red" stroke-width="2" y2="230.0000" stroke-dasharray="5.0000" x1="984.0000"/><line x2="1012.0000" y1="50.0000" stroke="red" stroke-width="2" y2="230.0000" stroke-dasharray="5.0000" x1="1012.0000"/><line x2="1040.0000" y1="50.0000" stroke="red" stroke-width="2" y2="230.0000" stroke-dasharray="5.0000" x1="1040.0000"/><line x2="1068.0000" y1="50.0000" stroke="red" stroke-width="2" y2="230.0000" stroke-dasharray="5.0000" x1="1068.0000"/><line x2="1096.0000" y1="50.0000" stroke="red" stroke-width="2" y2="230.0000" stroke-dasharray="5.0000" x1="1096.0000"/><line x2="1124.0000" y1="50.0000" stroke="red" stroke-width="2" y2="230.0000" stroke-dasharray="5.0000" x1="1124.0000"/><line x2="1152.0000" y1="50.0000" stroke="red" stroke-width="2" y2="230.0000" stroke-dasharray="5.0000" x1="1152.0000"/><line x2="1180.0000" y1="50.0000" stroke="red" stroke-width="2" y2="230.0000" stroke-dasharray="5.0000" x1="1180.0000"/><line x2="1208.0000" y1="50.0000" stroke="red" stroke-width="2" y2="230.0000" stroke-dasharray="5.0000" x1="1208.0000"/><line x2="1236.0000" y1="50.0000" stroke="red" stroke-width="2" y2="230.0000" stroke-dasharray="5.0000" x1="1236.0000"/><line x2="1264.0000" y1="50.0000" stroke="red" stroke-width="2" y2="230.0000" stroke-dasharray="5.0000" x1="1264.0000"/><line x2="1292.0000" y1="50.0000" stroke="red" stroke-width="2" y2="230.0000" stroke-dasharray="5.0000" x1="1292.0000"/><line x2="1320.0000" y1="50.0000" stroke="red" stroke-width="2" y2="230.0000" stroke-dasharray="5.0000" x1="1320.0000"/><line x2="1348.0000" y1="50.0000" stroke="red" stroke-width="2" y2="230.0000" stroke-dasharray="5.0000" x1="1348.0000"/><line x2="1376.0000" y1="50.0000" stroke="red" stroke-width="2" y2="230.0000" stroke-dasharray="5.0000" x1="1376.0000"/><line x2="1404.0000" y1="50.0000" stroke="red" stroke-width="2" y2="230.0000" stroke-dasharray="5.0000" x1="1404.0000"/><line x2="1432.0000" y1="50.0000" stroke="red" stroke-width="2" y2="230.0000" stroke-dasharray="5.0000" x1="1432.0000"/><line x2="1460.0000" y1="50.0000" stroke="red" stroke-width="2" y2="230.0000" stroke-dasharray="5.0000" x1="1460.0000"/><line x2="1488.0000" y1="50.0000" stroke="red" stroke-width="2" y2="230.0000" stroke-dasharray="5.0000" x1="1488.0000"/><line x2="1516.0000" y1="50.0000" stroke="red" stroke-width="2" y2="230.0000" stroke-dasharray="5.0000" x1="1516.0000"/><line x2="1544.0000" y1="50.0000" stroke="red" stroke-width="2" y2="230.0000" stroke-dasharray="5.0000" x1="1544.0000"/><line x2="1572.0000" y1="50.0000" stroke="red" stroke-width="2" y2="230.0000" stroke-dasharray="5.0000" x1="1572.0000"/><line x2="1600.0000" y1="50.0000" stroke="red" stroke-width="2" y2="230.0000" stroke-dasharray="5.0000" x1="1600.0000"/><line x2="1628.0000" y1="50.0000" stroke="red" stroke-width="2" y2="230.0000" stroke-dasharray="5.0000" x1="1628.0000"/><line x2="1656.0000" y1="50.0000" stroke="red" stroke-width="2" y2="230.0000" stroke-dasharray="5.0000" x1="1656.0000"/><line x2="1684.0000" y1="50.0000" stroke="red" stroke-width="2" y2="230.0000" stroke-dasharray="5.0000" x1="1684.0000"/><line x2="1712.0000" y1="50.0000" stroke="red" stroke-width="2" y2="230.0000" stroke-dasharray="5.0000" x1="1712.0000"/><line x2="1740.0000" y1="50.0000" stroke="red" stroke-width="2" y2="230.0000" stroke-dasharray="5.0000" x1="1740.0000"/><line x2="1768.0000" y1="50.0000" stroke="red" stroke-width="2" y2="230.0000" stroke-dasharray="5.0000" x1="1768.0000"/><line x2="1796.0000" y1="50.0000" stroke="red" stroke-width="2" y2="230.0000" stroke-dasharray="5.0000" x1="1796.0000"/><line x2="1824.0000" y1="50.0000" stroke="red" stroke-width="2" y2="230.0000" stroke-dasharray="5.0000" x1="1824.0000"/><line x2="1852.0000" y1="50.0000" stroke="red" stroke-width="2" y2="230.0000" stroke-dasharray="5.0000" x1="1852.0000"/><line x2="1880.0000" y1="50.0000" stroke="red" stroke-width="2" y2="230.0000" stroke-dasharray="5.0000" x1="1880.0000"/><line x2="1908.0000" y1="50.0000" stroke="red" stroke-width="2" y2="230.0000" stroke-dasharray="5.0000" x1="1908.0000"/><line x2="200.0000" y1="50.0000" stroke="blue" stroke-width="2" y2="230.0000" stroke-dasharray="2.0000" x1="200.0000"/><line x2="228.0000" y1="50.0000" stroke="blue" stroke-width="2" y2="230.0000" stroke-dasharray="2.0000" x1="228.0000"/><line x2="256.0000" y1="50.0000" stroke="blue" stroke-width="2" y2="230.0000" stroke-dasharray="2.0000" x1="256.0000"/><line x2="284.0000" y1="50.0000" stroke="blue" stroke-width="2" y2="230.0000" stroke-dasharray="2.0000" x1="284.0000"/><line x2="312.0000" y1="50.0000" stroke="blue" stroke-width="2" y2="230.0000" stroke-dasharray="2.0000" x1="312.0000"/><line x2="340.0000" y1="50.0000" stroke="blue" stroke-width="2" y2="230.0000" stroke-dasharray="2.0000" x1="340.0000"/><line x2="368.0000" y1="50.0000" stroke="blue" stroke-width="2" y2="230.0000" stroke-dasharray="2.0000" x1="368.0000"/><line x2="396.0000" y1="50.0000" stroke="blue" stroke-width="2" y2="230.0000" stroke-dasharray="2.0000" x1="396.0000"/><line x2="424.0000" y1="50.0000" stroke="blue" stroke-width="2" y2="230.0000" stroke-dasharray="2.0000" x1="424.0000"/><line x2="452.0000" y1="50.0000" stroke="blue" stroke-width="2" y2="230.0000" stroke-dasharray="2.0000" x1="452.0000"/><line x2="480.0000" y1="50.0000" stroke="blue" stroke-width="2" y2="230.0000" stroke-dasharray="2.0000" x1="480.0000"/><line x2="508.0000" y1="50.0000" stroke="blue" stroke-width="2" y2="230.0000" stroke-dasharray="2.0000" x1="508.0000"/><line x2="536.0000" y1="50.0000" stroke="blue" stroke-width="2" y2="230.0000" stroke-dasharray="2.0000" x1="536.0000"/><line x2="564.0000" y1="50.0000" stroke="blue" stroke-width="2" y2="230.0000" stroke-dasharray="2.0000" x1="564.0000"/><line x2="592.0000" y1="50.0000" stroke="blue" stroke-width="2" y2="230.0000" stroke-dasharray="2.0000" x1="592.0000"/><line x2="620.0000" y1="50.0000" stroke="blue" stroke-width="2" y2="230.0000" stroke-dasharray="2.0000" x1="620.0000"/><line x2="648.0000" y1="50.0000" stroke="blue" stroke-width="2" y2="230.0000" stroke-dasharray="2.0000" x1="648.0000"/><line x2="676.0000" y1="50.0000" stroke="blue" stroke-width="2" y2="230.0000" stroke-dasharray="2.0000" x1="676.0000"/><line x2="704.0000" y1="50.0000" stroke="blue" stroke-width="2" y2="230.0000" stroke-dasharray="2.0000" x1="704.0000"/><line x2="732.0000" y1="50.0000" stroke="blue" stroke-width="2" y2="230.0000" stroke-dasharray="2.0000" x1="732.0000"/><line x2="760.0000" y1="50.0000" stroke="blue" stroke-width="2" y2="230.0000" stroke-dasharray="2.0000" x1="760.0000"/><line x2="788.0000" y1="50.0000" stroke="blue" stroke-width="2" y2="230.0000" stroke-dasharray="2.0000" x1="788.0000"/><line x2="816.0000" y1="50.0000" stroke="blue" stroke-width="2" y2="230.0000" stroke-dasharray="2.0000" x1="816.0000"/><line x2="844.0000" y1="50.0000" stroke="blue" stroke-width="2" y2="230.0000" stroke-dasharray="2.0000" x1="844.0000"/><line x2="872.0000" y1="50.0000" stroke="blue" stroke-width="2" y2="230.0000" stroke-dasharray="2.0000" x1="872.0000"/><line x2="900.0000" y1="50.0000" stroke="blue" stroke-width="2" y2="230.0000" stroke-dasharray="2.0000" x1="900.0000"/><line x2="928.0000" y1="50.0000" stroke="blue" stroke-width="2" y2="230.0000" stroke-dasharray="2.0000" x1="928.0000"/><line x2="956.0000" y1="50.0000" stroke="blue" stroke-width="2" y2="230.0000" stroke-dasharray="2.0000" x1="956.0000"/><line x2="984.0000" y1="50.0000" stroke="blue" stroke-width="2" y2="230.0000" stroke-dasharray="2.0000" x1="984.0000"/><line x2="1012.0000" y1="50.0000" stroke="blue" stroke-width="2" y2="230.0000" stroke-dasharray="2.0000" x1="1012.0000"/><line x2="1040.0000" y1="50.0000" stroke="blue" stroke-width="2" y2="230.0000" stroke-dasharray="2.0000" x1="1040.0000"/><line x2="1068.0000" y1="50.0000" stroke="blue" stroke-width="2" y2="230.0000" stroke-dasharray="2.0000" x1="1068.0000"/><line x2="1096.0000" y1="50.0000" stroke="blue" stroke-width="2" y2="230.0000" stroke-dasharray="2.0000" x1="1096.0000"/><line x2="1124.0000" y1="50.0000" stroke="blue" stroke-width="2" y2="230.0000" stroke-dasharray="2.0000" x1="1124.0000"/><line x2="1152.0000" y1="50.0000" stroke="blue" stroke-width="2" y2="230.0000" stroke-dasharray="2.0000" x1="1152.0000"/><line x2="1180.0000" y1="50.0000" stroke="blue" stroke-width="2" y2="230.0000" stroke-dasharray="2.0000" x1="1180.0000"/><line x2="1208.0000" y1="50.0000" stroke="blue" stroke-width="2" y2="230.0000" stroke-dasharray="2.0000" x1="1208.0000"/><line x2="1236.0000" y1="50.0000" stroke="blue" stroke-width="2" y2="230.0000" stroke-dasharray="2.0000" x1="1236.0000"/><line x2="1264.0000" y1="50.0000" stroke="blue" stroke-width="2" y2="230.0000" stroke-dasharray="2.0000" x1="1264.0000"/><line x2="1292.0000" y1="50.0000" stroke="blue" stroke-width="2" y2="230.0000" stroke-dasharray="2.0000" x1="1292.0000"/><line x2="1320.0000" y1="50.0000" stroke="blue" stroke-width="2" y2="230.0000" stroke-dasharray="2.0000" x1="1320.0000"/><line x2="1348.0000" y1="50.0000" stroke="blue" stroke-width="2" y2="230.0000" stroke-dasharray="2.0000" x1="1348.0000"/><line x2="1376.0000" y1="50.0000" stroke="blue" stroke-width="2" y2="230.0000" stroke-dasharray="2.0000" x1="1376.0000"/><line x2="1404.0000" y1="50.0000" stroke="blue" stroke-width="2" y2="230.0000" stroke-dasharray="2.0000" x1="1404.0000"/><line x2="1432.0000" y1="50.0000" stroke="blue" stroke-width="2" y2="230.0000" stroke-dasharray="2.0000" x1="1432.0000"/><line x2="1460.0000" y1="50.0000" stroke="blue" stroke-width="2" y2="230.0000" stroke-dasharray="2.0000" x1="1460.0000"/><line x2="1488.0000" y1="50.0000" stroke="blue" stroke-width="2" y2="230.0000" stroke-dasharray="2.0000" x1="1488.0000"/><line x2="1516.0000" y1="50.0000" stroke="blue" stroke-width="2" y2="230.0000" stroke-dasharray="2.0000" x1="1516.0000"/><line x2="1544.0000" y1="50.0000" stroke="blue" stroke-width="2" y2="230.0000" stroke-dasharray="2.0000" x1="1544.0000"/><line x2="1572.0000" y1="50.0000" stroke="blue" stroke-width="2" y2="230.0000" stroke-dasharray="2.0000" x1="1572.0000"/><line x2="1600.0000" y1="50.0000" stroke="blue" stroke-width="2" y2="230.0000" stroke-dasharray="2.0000" x1="1600.0000"/><line x2="1628.0000" y1="50.0000" stroke="blue" stroke-width="2" y2="230.0000" stroke-dasharray="2.0000" x1="1628.0000"/><line x2="1656.0000" y1="50.0000" stroke="blue" stroke-width="2" y2="230.0000" stroke-dasharray="2.0000" x1="1656.0000"/><line x2="1684.0000" y1="50.0000" stroke="blue" stroke-width="2" y2="230.0000" stroke-dasharray="2.0000" x1="1684.0000"/><line x2="1712.0000" y1="50.0000" stroke="blue" stroke-width="2" y2="230.0000" stroke-dasharray="2.0000" x1="1712.0000"/><line x2="1740.0000" y1="50.0000" stroke="blue" stroke-width="2" y2="230.0000" stroke-dasharray="2.0000" x1="1740.0000"/><line x2="1768.0000" y1="50.0000" stroke="blue" stroke-width="2" y2="230.0000" stroke-dasharray="2.0000" x1="1768.0000"/><line x2="1796.0000" y1="50.0000" stroke="blue" stroke-width="2" y2="230.0000" stroke-dasharray="2.0000" x1="1796.0000"/><line x2="1824.0000" y1="50.0000" stroke="blue" stroke-width="2" y2="230.0000" stroke-dasharray="2.0000" x1="1824.0000"/><line x2="1852.0000" y1="50.0000" stroke="blue" stroke-width="2" y2="230.0000" stroke-dasharray="2.0000" x1="1852.0000"/><line x2="1880.0000" y1="50.0000" stroke="blue" stroke-width="2" y2="230.0000" stroke-dasharray="2.0000" x1="1880.0000"/><line x2="1908.0000" y1="50.0000" stroke="blue" stroke-width="2" y2="230.0000" stroke-dasharray="2.0000" x1="1908.0000"/></svg>