<?xml version="1.0" encoding="UTF-8"?>
<!DOCTYPE svg PUBLIC "-//W3C//DTD SVG 1.1//EN"
    "http://www.w3.org/Graphics/SVG/1.1/DTD/svg11.dtd"><svg xmlns="http://www.w3.org/2000/svg" height="300.0000" width="1920.0000" xmlns:xlink="http://www.w3.org/1999/xlink" version="1.11.1"><text font-size="30.0000" x="80.0000" text-anchor="start" y="74.0000">&quot;+0&quot;</text><rect height="30.0000" width="20.0000" stroke="black" fill="green" x="200.0000" y="50.0000"/><rect height="30.0000" width="20.0000" stroke="black" fill="green" x="280.0000" y="50.0000"/><rect height="30.0000" width="20.0000" stroke="black" fill="green" x="360.0000" y="50.0000"/><rect height="30.0000" width="20.0000" stroke="black" fill="green" x="440.0000" y="50.0000"/><rect height="30.0000" width="20.0000" stroke="black" fill="green" x="520.0000" y="50.0000"/><rect height="30.0000" width="20.0000" stroke="black" fill="green" x="600.0000" y="50.0000"/><rect height="30.0000" width="20.0000" stroke="black" fill="green" x="680.0000" y="50.0000"/><rect height="30.0000" width="20.0000" stroke="black" fill="green" x="760.0000" y="50.0000"/><rect height="30.0000" width="20.0000" stroke="black" fill="green" x="840.0000" y="50.0000"/><rect height="30.0000" width="20.0000" stroke="black" fill="green" x="920.0000" y="50.0000"/><rect height="30.0000" width="20.0000" stroke="black" fill="green" x="1000.0000" y="50.0000"/><rect height="30.0000" width="20.0000" stroke="black" fill="green" x="1080.0000" y="50.0000"/><rect height="30.0000" width="20.0000" stroke="black" fill="green" x="1160.0000" y="50.0000"/><rect height="30.0000" width="20.0000" stroke="black" fill="green" x="1240.0000" y="50.0000"/><rect height="30.0000" width="20.0000" stroke="black" fill="green" x="1320.0000" y="50.0000"/><rect height="30.0000" width="20.0000" stroke="black" fill="green" x="1400.0000" y="50.0000"/><rect height="30.0000" width="20.0000" stroke="black" fill="green" x="1480.0000" y="50.0000"/><rect height="30.0000" width="20.0000" stroke="black" fill="green" x="1560.0000" y="50.0000"/><rect height="30.0000" width="20.0000" stroke="black" fill="green" x="1640.0000" y="50.0000"/><rect height="30.0000" width="20.0000" stroke="black" fill="green" x="1720.0000" y="50.0000"/><rect height="30.0000" width="20.0000" stroke="black" fill="green" x="1800.0000" y="50.0000"/><rect height="30.0000" width="20.0000" stroke="black" fill="green" x="1880.0000" y="50.0000"/><rect height="30.0000" width="20.0000" stroke="black" fill="green" x="1960.0000" y="50.0000"/><text font-size="30.0000" x="80.0000" text-anchor="start" y="108.0000">&quot;+1&quot;</text><rect height="30.0000" width="20.0000" stroke="black" fill="green" x="220.0000" y="84.0000"/><rect height="30.0000" width="20.0000" stroke="black" fill="green" x="300.0000" y="84.0000"/><rect height="30.0000" width="20.0000" stroke="black" fill="green" x="380.0000" y="84.0000"/><rect height="30.0000" width="20.0000" stroke="black" fill="green" x="460.0000" y="84.0000"/><rect height="30.0000" width="20.0000" stroke="black" fill="green" x="540.0000" y="84.0000"/><rect height="30.0000" width="20.0000" stroke="black" fill="green" x="620.0000" y="84.0000"/><rect height="30.0000" width="20.0000" stroke="black" fill="green" x="700.0000" y="84.0000"/><rect height="30.0000" width="20.0000" stroke="black" fill="green" x="780.0000" y="84.0000"/><rect height="30.0000" width="20.0000" stroke="black" fill="green" x="860.0000" y="84.0000"/><rect height="30.0000" width="20.0000" stroke="black" fill="green" x="940.0000" y="84.0000"/><rect height="30.0000" width="20.0000" stroke="black" fill="green" x="1020.0000" y="84.0000"/><rect height="30.0000" width="20.0000" stroke="black" fill="green" x="1100.0000" y="84.0000"/><rect height="30.0000" width="20.0000" stroke="black" fill="green" x="1180.0000" y="84.0000"/><rect height="30.0000" width="20.0000" stroke="black" fill="green" x="1260.0000" y="84.0000"/><rect height="30.0000" width="20.0000" stroke="black" fill="green" x="1340.0000" y="84.0000"/><rect height="30.0000" width="20.0000" stroke="black" fill="green" x="1420.0000" y="84.0000"/><rect height="30.0000" width="20.0000" stroke="black" fill="green" x="1500.0000" y="84.0000"/><rect height="30.0000" width="20.0000" stroke="black" fill="green" x="1580.0000" y="84.0000"/><rect height="30.0000" width="20.0000" stroke="black" fill="green" x="1660.0000" y="84.0000"/><rect height="30.0000" width="20.0000" stroke="black" fill="green" x="1740.0000" y="84.0000"/><rect height="30.0000" width="20.0000" stroke="black" fill="green" x="1820.0000" y="84.0000"/><rect height="30.0000" width="20.0000" stroke="black" fill="green" x="1900.0000" y="84.0000"/><text font-size="30.0000" x="80.0000" text-anchor="start" y="142.0000">&quot;+2&quot;</text><rect height="30.0000" width="20.0000" stroke="black" fill="green" x="240.0000" y="118.0000"/><rect height="30.0000" width="20.0000" stroke="black" fill="green" x="320.0000" y="118.0000"/><rect height="30.0000" width="20.0000" stroke="black" fill="green" x="400.0000" y="118.0000"/><rect height="30.0000" width="20.0000" stroke="black" fill="green" x="480.0000" y="118.0000"/><rect height="30.0000" width="20.0000" stroke="black" fill="green" x="560.0000" y="118.0000"/><rect height="30.0000" width="20.0000" stroke="black" fill="green" x="640.0000" y="118.0000"/><rect height="30.0000" width="20.0000" stroke="black" fill="green" x="720.0000" y="118.0000"/><rect height="30.0000" width="20.0000" stroke="black" fill="green" x="800.0000" y="118.0000"/><rect height="30.0000" width="20.0000" stroke="black" fill="green" x="880.0000" y="118.0000"/><rect height="30.0000" width="20.0000" stroke="black" fill="green" x="960.0000" y="118.0000"/><rect height="30.0000" width="20.0000" stroke="black" fill="green" x="1040.0000" y="118.0000"/><rect height="30.0000" width="20.0000" stroke="black" fill="green" x="1120.0000" y="118.0000"/><rect height="30.0000" width="20.0000" stroke="black" fill="green" x="1200.0000" y="118.0000"/><rect height="30.0000" width="20.0000" stroke="black" fill="green" x="1280.0000" y="118.0000"/><rect height="30.0000" width="20.0000" stroke="black" fill="green" x="1360.0000" y="118.0000"/><rect height="30.0000" width="20.0000" stroke="black" fill="green" x="1440.0000" y="118.0000"/><rect height="30.0000" width="20.0000" stroke="black" fill="green" x="1520.0000" y="118.0000"/><rect height="30.0000" width="20.0000" stroke="black" fill="green" x="1600.0000" y="118.0000"/><rect height="30.0000" width="20.0000" stroke="black" fill="green" x="1680.0000" y="118.0000"/><rect height="30.0000" width="20.0000" stroke="black" fill="green" x="1760.0000" y="118.0000"/><rect height="30.0000" width="20.0000" stroke="black" fill="green" x="1840.0000" y="118.0000"/><rect height="30.0000" width="20.0000" stroke="black" fill="green" x="1920.0000" y="118.0000"/><text font-size="30.0000" x="80.0000" text-anchor="start" y="176.0000">&quot;+3&quot;</text><rect height="30.0000" width="20.0000" stroke="black" fill="green" x="260.0000" y="152.0000"/><rect height="30.0000" width="20.0000" stroke="black" fill="green" x="340.0000" y="152.0000"/><rect height="30.0000" width="20.0000" stroke="black" fill="green" x="420.0000" y="152.0000"/><rect height="30.0000" width="20.0000" stroke="black" fill="green" x="500.0000" y="152.0000"/><rect height="30.0000" width="20.0000" stroke="black" fill="green" x="580.0000" y="152.0000"/><rect height="30.0000" width="20.0000" stroke="black" fill="green" x="660.0000" y="152.0000"/><rect height="30.0000" width="20.0000" stroke="black" fill="green" x="740.0000" y="152.0000"/><rect height="30.0000" width="20.0000" stroke="black" fill="green" x="820.0000" y="152.0000"/><rect height="30.0000" width="20.0000" stroke="black" fill="green" x="900.0000" y="152.0000"/><rect height="30.0000" width="20.0000" stroke="black" fill="green" x="980.0000" y="152.0000"/><rect height="30.0000" width="20.0000" stroke="black" fill="green" x="1060.0000" y="152.0000"/><rect height="30.0000" width="20.0000" stroke="black" fill="green" x="1140.0000" y="152.0000"/><rect height="30.0000" width="20.0000" stroke="black" fill="green" x="1220.0000" y="152.0000"/><rect height="30.0000" width="20.0000" stroke="black" fill="green" x="1300.0000" y="152.0000"/><rect height="30.0000" width="20.0000" stroke="black" fill="green" x="1380.0000" y="152.0000"/><rect height="30.0000" width="20.0000" stroke="black" fill="green" x="1460.0000" y="152.0000"/><rect height="30.0000" width="20.0000" stroke="black" fill="green" x="1540.0000" y="152.0000"/><rect height="30.0000" width="20.0000" stroke="black" fill="green" x="1620.0000" y="152.0000"/><rect height="30.0000" width="20.0000" stroke="black" fill="green" x="1700.0000" y="152.0000"/><rect height="30.0000" width="20.0000" stroke="black" fill="green" x="1780.0000" y="152.0000"/><rect height="30.0000" width="20.0000" stroke="black" fill="green" x="1860.0000" y="152.0000"/><rect height="30.0000" width="20.0000" stroke="black" fill="green" x="1940.0000" y="152.0000"/><text font-size="30.0000" x="110.0000" text-anchor="start" y="210.0000">&quot;I&quot;</text><rect height="30.0000" width="1.0000" stroke="black" fill="green" x="200.0000" y="186.0000"/><rect height="30.0000" width="1.0000" stroke="black" fill="green" x="280.0000" y="186.0000"/><rect height="30.0000" width="1.0000" stroke="black" fill="green" x="360.0000" y="186.0000"/><rect height="30.0000" width="1.0000" stroke="black" fill="green" x="440.0000" y="186.0000"/><rect height="30.0000" width="1.0000" stroke="black" fill="green" x="520.0000" y="186.0000"/><rect height="30.0000" width="1.0000" stroke="black" fill="green" x="600.0000" y="186.0000"/><rect height="30.0000" width="1.0000" stroke="black" fill="green" x="680.0000" y="186.0000"/><rect height="30.0000" width="1.0000" stroke="black" fill="green" x="760.0000" y="186.0000"/><rect height="30.0000" width="1.0000" stroke="black" fill="green" x="840.0000" y="186.0000"/><rect height="30.0000" width="1.0000" stroke="black" fill="green" x="920.0000" y="186.0000"/><rect height="30.0000" width="1.0000" stroke="black" fill="green" x="1000.0000" y="186.0000"/><rect height="30.0000" width="1.0000" stroke="black" fill="green" x="1080.0000" y="186.0000"/><rect height="30.0000" width="1.0000" stroke="black" fill="green" x="1160.0000" y="186.0000"/><rect height="30.0000" width="1.0000" stroke="black" fill="green" x="1240.0000" y="186.0000"/><rect height="30.0000" width="1.0000" stroke="black" fill="green" x="1320.0000" y="186.0000"/><rect height="30.0000" width="1.0000" stroke="black" fill="green" x="1400.0000" y="186.0000"/><rect height="30.0000" width="1.0000" stroke="black" fill="green" x="1480.0000" y="186.0000"/><rect height="30.0000" width="1.0000" stroke="black" fill="green" x="1560.0000" y="186.0000"/><rect height="30.0000" width="1.0000" stroke="black" fill="green" x="1640.0000" y="186.0000"/><rect height="30.0000" width="1.0000" stroke="black" fill="green" x="1720.0000" y="186.0000"/><rect height="30.0000" width="1.0000" stroke="black" fill="green" x="1800.0000" y="186.0000"/><rect height="30.0000" width="1.0000" stroke="black" fill="green" x="1880.0000" y="186.0000"/><rect height="30.0000" width="1.0000" stroke="black" fill="green" x="1960.0000" y="186.0000"/><text font-size="30.0000" x="110.0000" text-anchor="start" y="244.0000">&quot;Z&quot;</text><rect height="30.0000" width="1.0000" stroke="black" fill="green" x="280.0000" y="220.0000"/><rect height="30.0000" width="1.0000" stroke="black" fill="green" x="360.0000" y="220.0000"/><rect height="30.0000" width="1.0000" stroke="black" fill="green" x="440.0000" y="220.0000"/><rect height="30.0000" width="1.0000" stroke="black" fill="green" x="520.0000" y="220.0000"/><rect height="30.0000" width="1.0000" stroke="black" fill="green" x="600.0000" y="220.0000"/><rect height="30.0000" width="1.0000" stroke="black" fill="green" x="680.0000" y="220.0000"/><rect height="30.0000" width="1.0000" stroke="black" fill="green" x="760.0000" y="220.0000"/><rect height="30.0000" width="1.0000" stroke="black" fill="green" x="840.0000" y="220.0000"/><rect height="30.0000" width="1.0000" stroke="black" fill="green" x="920.0000" y="220.0000"/><rect height="30.0000" width="1.0000" stroke="black" fill="green" x="1000.0000" y="220.0000"/><rect height="30.0000" width="1.0000" stroke="black" fill="green" x="1080.0000" y="220.0000"/><rect height="30.0000" width="1.0000" stroke="black" fill="green" x="1160.0000" y="220.0000"/><rect height="30.0000" width="1.0000" stroke="black" fill="green" x="1240.0000" y="220.0000"/><rect height="30.0000" width="1.0000" stroke="black" fill="green" x="1320.0000" y="220.0000"/><rect height="30.0000" width="1.0000" stroke="black" fill="green" x="1400.0000" y="220.0000"/><rect height="30.0000" width="1.0000" stroke="black" fill="green" x="1480.0000" y="220.0000"/><rect height="30.0000" width="1.0000" stroke="black" fill="green" x="1560.0000" y="220.0000"/><rect height="30.0000" width="1.0000" stroke="black" fill="green" x="1640.0000" y="220.0000"/><rect height="30.0000" width="1.0000" stroke="black" fill="green" x="1720.0000" y="220.0000"/><rect height="30.0000" width="1.0000" stroke="black" fill="green" x="1800.0000" y="220.0000"/><rect height="30.0000" width="1.0000" stroke="black" fill="green" x="1880.0000" y="220.0000"/><rect height="30.0000" width="1.0000" stroke="black" fill="green" x="1960.0000" y="220.0000"/><line x2="200.0000" y1="50.0000" stroke="red" stroke-width="2" y2="350.0000" stroke-dasharray="5.0000" x1="200.0000"/><line x2="280.0000" y1="50.0000" stroke="red" stroke-width="2" y2="350.0000" stroke-dasharray="5.0000" x1="280.0000"/><line x2="360.0000" y1="50.0000" stroke="red" stroke-width="2" y2="350.0000" stroke-dasharray="5.0000" x1="360.0000"/><line x2="440.0000" y1="50.0000" stroke="red" stroke-width="2" y2="350.0000" stroke-dasharray="5.0000" x1="440.0000"/><line x2="520.0000" y1="50.0000" stroke="red" stroke-width="2" y2="350.0000" stroke-dasharray="5.0000" x1="520.0000"/><line x2="600.0000" y1="50.0000" stroke="red" stroke-width="2" y2="350.0000" stroke-dasharray="5.0000" x1="600.0000"/><line x2="680.0000" y1="50.0000" stroke="red" stroke-width="2" y2="350.0000" stroke-dasharray="5.0000" x1="680.0000"/><line x2="760.0000" y1="50.0000" stroke="red" stroke-width="2" y2="350.0000" stroke-dasharray="5.0000" x1="760.0000"/><line x2="840.0000" y1="50.0000" stroke="red" stroke-width="2" y2="350.0000" stroke-dasharray="5.0000" x1="840.0000"/><line x2="920.0000" y1="50.0000" stroke="red" stroke-width="2" y2="350.0000" stroke-dasharray="5.0000" x1="920.0000"/><line x2="1000.0000" y1="50.0000" stroke="red" stroke-width="2" y2="350.0000" stroke-dasharray="5.0000" x1="1000.0000"/><line x2="1080.0000" y1="50.0000" stroke="red" stroke-width="2" y2="350.0000" stroke-dasharray="5.0000" x1="1080.0000"/><line x2="1160.0000" y1="50.0000" stroke="red" stroke-width="2" y2="350.0000" stroke-dasharray="5.0000" x1="1160.0000"/><line x2="1240.0000" y1="50.0000" stroke="red" stroke-width="2" y2="350.0000" stroke-dasharray="5.0000" x1="1240.0000"/><line x2="1320.0000" y1="50.0000" stroke="red" stroke-width="2" y2="350.0000" stroke-dasharray="5.0000" x1="1320.0000"/><line x2="1400.0000" y1="50.0000" stroke="red" stroke-width="2" y2="350.0000" stroke-dasharray="5.0000" x1="1400.0000"/><line x2="1480.0000" y1="50.0000" stroke="red" stroke-width="2" y2="350.0000" stroke-dasharray="5.0000" x1="1480.0000"/><line x2="1560.0000" y1="50.0000" stroke="red" stroke-width="2" y2="350.0000" stroke-dasharray="5.0000" x1="1560.0000"/><line x2="1640.0000" y1="50.0000" stroke="red" stroke-width="2" y2="350.0000" stroke-dasharray="5.0000" x1="1640.0000"/><line x2="1720.0000" y1="50.0000" stroke="red" stroke-width="2" y2="350.0000" stroke-dasharray="5.0000" x1="1720.0000"/><line x2="1800.0000" y1="50.0000" stroke="red" stroke-width="2" y2="350.0000" stroke-dasharray="5.0000" x1="1800.0000"/><line x2="1880.0000" y1="50.0000" stroke="red" stroke-width="2" y2="350.0000" stroke-dasharray="5.0000" x1="1880.0000"/><line x2="1960.0000" y1="50.0000" stroke="red" stroke-width="2" y2="350.0000" stroke-dasharray="5.0000" x1="1960.0000"/><line x2="200.0000" y1="50.0000" stroke="blue" stroke-width="2" y2="350.0000" stroke-dasharray="2.0000" x1="200.0000"/><line x2="280.0000" y1="50.0000" stroke="blue" stroke-width="2" y2="350.0000" stroke-dasharray="2.0000" x1="280.0000"/><line x2="360.0000" y1="50.0000" stroke="blue" stroke-width="2" y2="350.0000" stroke-dasharray="2.0000" x1="360.0000"/><line x2="440.0000" y1="50.0000" stroke="blue" stroke-width="2" y2="350.0000" stroke-dasharray="2.0000" x1="440.0000"/><line x2="520.0000" y1="50.0000" stroke="blue" stroke-width="2" y2="350.0000" stroke-dasharray="2.0000" x1="520.0000"/><line x2="600.0000" y1="50.0000" stroke="blue" stroke-width="2" y2="350.0000" stroke-dasharray="2.0000" x1="600.0000"/><line x2="680.0000" y1="50.0000" stroke="blue" stroke-width="2" y2="350.0000" stroke-dasharray="2.0000" x1="680.0000"/><line x2="760.0000" y1="50.0000" stroke="blue" stroke-width="2" y2="350.0000" stroke-dasharray="2.0000" x1="760.0000"/><line x2="840.0000" y1="50.0000" stroke="blue" stroke-width="2" y2="350.0000" stroke-dasharray="2.0000" x1="840.0000"/><line x2="920.0000" y1="50.0000" stroke="blue" stroke-width="2" y2="350.0000" stroke-dasharray="2.0000" x1="920.0000"/><line x2="1000.0000" y1="50.0000" stroke="blue" stroke-width="2" y2="350.0000" stroke-dasharray="2.0000" x1="1000.0000"/><line x2="1080.0000" y1="50.0000" stroke="blue" stroke-width="2" y2="350.0000" stroke-dasharray="2.0000" x1="1080.0000"/><line x2="1160.0000" y1="50.0000" stroke="blue" stroke-width="2" y2="350.0000" stroke-dasharray="2.0000" x1="1160.0000"/><line x2="1240.0000" y1="50.0000" stroke="blue" stroke-width="2" y2="350.0000" stroke-dasharray="2.0000" x1="1240.0000"/><line x2="1320.0000" y1="50.0000" stroke="blue" stroke-width="2" y2="350.0000" stroke-dasharray="2.0000" x1="1320.0000"/><line x2="1400.0000" y1="50.0000" stroke="blue" stroke-width="2" y2="350.0000" stroke-dasharray="2.0000" x1="1400.0000"/><line x2="1480.0000" y1="50.0000" stroke="blue" stroke-width="2" y2="350.0000" stroke-dasharray="2.0000" x1="1480.0000"/><line x2="1560.0000" y1="50.0000" stroke="blue" stroke-width="2" y2="350.0000" stroke-dasharray="2.0000" x1="1560.0000"/><line x2="1640.0000" y1="50.0000" stroke="blue" stroke-width="2" y2="350.0000" stroke-dasharray="2.0000" x1="1640.0000"/><line x2="1720.0000" y1="50.0000" stroke="blue" stroke-width="2" y2="350.0000" stroke-dasharray="2.0000" x1="1720.0000"/><line x2="1800.0000" y1="50.0000" stroke="blue" stroke-width="2" y2="350.0000" stroke-dasharray="2.0000" x1="1800.0000"/><line x2="1880.0000" y1="50.0000" stroke="blue" stroke-width="2" y2="350.0000" stroke-dasharray="2.0000" x1="1880.0000"/><line x2="1960.0000" y1="50.0000" stroke="blue" stroke-width="2" y2="350.0000" stroke-dasharray="2.0000" x1="1960.0000"/></svg>